<svg width="35" height="32" viewBox="0 0 35 32" fill="none" xmlns="http://www.w3.org/2000/svg">
<g id="Frame">
<g clip-path="url(#clip0_89_3664)">
<path id="Vector" d="M4.375 4.28571C4.375 3.02143 3.50918 2 2.4375 2C1.36582 2 0.5 3.02143 0.5 4.28571V28.2857C0.5 31.4429 2.66758 34 5.34375 34H29.5625C30.6342 34 31.5 32.9786 31.5 31.7143C31.5 30.45 30.6342 29.4286 29.5625 29.4286H5.34375C4.81094 29.4286 4.375 28.9143 4.375 28.2857V4.28571ZM28.9934 10.4714C29.7502 9.57857 29.7502 8.12857 28.9934 7.23571C28.2365 6.34286 27.0074 6.34286 26.2506 7.23571L19.875 14.7643L16.3996 10.6643C15.6428 9.77143 14.4137 9.77143 13.6568 10.6643L6.87559 18.6643C6.11875 19.5571 6.11875 21.0071 6.87559 21.9C7.63242 22.7929 8.86152 22.7929 9.61836 21.9L15.0312 15.5214L18.5066 19.6214C19.2635 20.5143 20.4926 20.5143 21.2494 19.6214L28.9994 10.4786L28.9934 10.4714Z" fill="#4B5563"/>
</g>
</g>
<defs>
<clipPath id="clip0_89_3664">
<path d="M0.5 0H34.5V32H0.5V0Z" fill="white"/>
</clipPath>
</defs>
</svg>
