<svg version="1.1" xmlns="http://www.w3.org/2000/svg" xmlns:xlink="http://www.w3.org/1999/xlink" width="700" height="700" viewBox="586,147.5,700,700"><g id="document" fill="#ffffff" fill-rule="nonzero" stroke="#000000" stroke-width="0" stroke-linecap="butt" stroke-linejoin="miter" stroke-miterlimit="10" stroke-dasharray="" stroke-dashoffset="0" font-family="none" font-weight="none" font-size="none" text-anchor="none" style="mix-blend-mode: normal"><rect x="586" y="105.35714" transform="scale(1,1.4)" width="700" height="500" id="Shape 1 1" vector-effect="non-scaling-stroke"/></g><g fill-opacity="0" fill="#000000" fill-rule="nonzero" stroke="#000000" stroke-width="1" stroke-linecap="round" stroke-linejoin="round" stroke-miterlimit="10" stroke-dasharray="" stroke-dashoffset="0" font-family="none" font-weight="none" font-size="none" text-anchor="none" style="mix-blend-mode: normal"><g id="stage"><g id="layer1 1"><path d="M910,222c-10.37436,3.43499 -20.1786,8.03236 -27.55535,16.3543c-17.13853,19.3345 -14.34493,48.49366 3.63419,66.18294c17.32326,17.04399 48.64743,20.84612 72.03824,17.65c22.50935,-3.07567 41.00453,-18.62976 48.36334,-40.08931c3.77019,-10.99452 3.91929,-24.18566 -2.75297,-34.19023c-13.9496,-20.91642 -39.95442,-29.37628 -64.07679,-29.62672" id="Path 1"/><path d="M941,324c-1.7574,36.29548 -5.25571,72.58329 -6.71457,108.8734c30.70663,-0.97061 55.61524,-6.4779 82.85696,10.82956c5.56081,3.53295 10.71812,7.61633 15.43349,12.21976c5.53746,5.40602 10.76982,11.34794 15.08834,17.77687c5.75246,8.56362 9.40195,17.5227 12.44525,27.33955c1.4962,7.48905 2.81052,14.80785 2.44435,22.48609c-1.34456,28.1941 -18.51273,49.17463 -37.25355,68.57715c-20.8124,21.54723 -45.51204,43.89151 -73.47569,55.43932c-13.149,5.42999 -30.80324,5.56619 -44.63508,5.69359c-12.87231,0.11856 -25.99493,-1.14394 -38.46179,-4.453c-8.39529,-2.22835 -16.14562,-5.60454 -23.4922,-10.2349c-26.52719,-16.71942 -28.53379,-48.17719 -18.38213,-75.11662c15.26961,-40.52092 43.89377,-77.48597 87.17113,-88.48827c3.89579,-22.53568 4.10406,-45.14556 4.60262,-67.93637c0.64934,-29.68362 1.37287,-59.30757 1.37287,-89.00614" id="Path 1"/><path d="M842,528c-18.37927,-10.97155 -35.84808,-23.37252 -54.04484,-34.63718c-16.1498,-9.9975 -33.17491,-18.48416 -48.99879,-29.01635c-1.15834,-5.19306 -2.79832,-9.90957 -5.51362,-14.49447c-1.63245,-2.75646 -3.72464,-5.31241 -6.2763,-7.26605c-27.71678,-21.22097 -68.08836,38.45551 -33.20369,53.27755c2.88915,1.22756 5.7507,1.46155 8.84273,1.60392" id="Path 1"/><path d="M824,562c-28.40867,-16.35155 -55.04967,-34.18435 -81.91326,-52.80635" id="Path 1"/><path d="M749.16146,520.37441c-5.75443,-14.27883 -13.31803,-27.61277 -20.16146,-41.37441c-5.25171,2.74739 -10.39464,5.68445 -15.57794,8.55715" id="Path 1"/><path d="M827,614c-24.37268,18.87334 -51.73704,31.14304 -78.43041,46.07843c-19.76835,11.06072 -38.14352,24.4653 -56.48494,37.70722c-9.07429,-5.00278 -19.62306,-11.50521 -30.4964,-8.93727c-21.40504,5.05519 -34.03561,30.81065 -28.26044,51.39381c7.09389,25.28318 37.77623,46.24841 62.74599,51.26184c22.29548,4.47649 49.67326,-15.66557 39.03788,-40.19971c-4.2877,-9.89105 -17.50835,-16.93939 -14.60829,-28.26848c1.41489,-5.52726 6.49515,-10.02047 11.00545,-13.1217c9.01434,-6.19814 19.53835,-10.74294 29.32922,-15.59106c10.12353,-4.81161 20.14195,-6.9672 31.28931,-7.54328" id="Path 1"/><path d="M858,641c-17.01331,13.99577 -34.62577,27.1862 -53.61885,38.3989c-17.00032,10.03626 -34.9237,18.41051 -51.99378,28.33355" id="Path 1"/></g></g></g></svg>