<svg width="22" height="18" viewBox="0 0 22 18" fill="none" xmlns="http://www.w3.org/2000/svg">
<g id="Frame">
<g clip-path="url(#clip0_74_1791)">
<path id="Vector" d="M21.0555 8.98242C21.0555 9.61523 20.5281 10.1109 19.9305 10.1109H18.8055L18.8301 15.743C18.8301 15.8379 18.823 15.9328 18.8125 16.0277V16.5938C18.8125 17.3707 18.1832 18 17.4062 18H16.8438C16.8051 18 16.7664 18 16.7277 17.9965C16.6785 18 16.6293 18 16.5801 18H15.4375H14.5938C13.8168 18 13.1875 17.3707 13.1875 16.5938V15.75V13.5C13.1875 12.8777 12.6848 12.375 12.0625 12.375H9.8125C9.19023 12.375 8.6875 12.8777 8.6875 13.5V15.75V16.5938C8.6875 17.3707 8.0582 18 7.28125 18H6.4375H5.31602C5.26328 18 5.21055 17.9965 5.15781 17.993C5.11562 17.9965 5.07344 18 5.03125 18H4.46875C3.6918 18 3.0625 17.3707 3.0625 16.5938V12.6562C3.0625 12.6246 3.0625 12.5895 3.06602 12.5578V10.1109H1.9375C1.30469 10.1109 0.8125 9.61875 0.8125 8.98242C0.8125 8.66602 0.917969 8.38477 1.16406 8.13867L10.1781 0.28125C10.4242 0.0351562 10.7055 0 10.9516 0C11.1977 0 11.4789 0.0703125 11.6898 0.246094L20.6687 8.13867C20.95 8.38477 21.0906 8.66602 21.0555 8.98242Z" fill="#4F46E5"/>
</g>
</g>
<defs>
<clipPath id="clip0_74_1791">
<path d="M0.8125 0H21.0625V18H0.8125V0Z" fill="white"/>
</clipPath>
</defs>
</svg>
