<svg width="35" height="32" viewBox="0 0 35 32" fill="none" xmlns="http://www.w3.org/2000/svg">
<g id="Frame">
<g clip-path="url(#clip0_89_3668)">
<path id="Vector" d="M7.14286 0C3.47545 0 0.5 2.6875 0.5 6V26C0.5 29.3125 3.47545 32 7.14286 32H27.0714H29.2857C30.5105 32 31.5 31.1063 31.5 30C31.5 28.8937 30.5105 28 29.2857 28V24C30.5105 24 31.5 23.1063 31.5 22V2C31.5 0.89375 30.5105 0 29.2857 0H27.0714H7.14286ZM7.14286 24H24.8571V28H7.14286C5.91808 28 4.92857 27.1063 4.92857 26C4.92857 24.8937 5.91808 24 7.14286 24ZM9.35714 9C9.35714 8.45 9.85536 8 10.4643 8H23.75C24.3589 8 24.8571 8.45 24.8571 9C24.8571 9.55 24.3589 10 23.75 10H10.4643C9.85536 10 9.35714 9.55 9.35714 9ZM10.4643 12H23.75C24.3589 12 24.8571 12.45 24.8571 13C24.8571 13.55 24.3589 14 23.75 14H10.4643C9.85536 14 9.35714 13.55 9.35714 13C9.35714 12.45 9.85536 12 10.4643 12Z" fill="#4B5563"/>
</g>
</g>
<defs>
<clipPath id="clip0_89_3668">
<path d="M0.5 0H34.5V32H0.5V0Z" fill="white"/>
</clipPath>
</defs>
</svg>
