<svg width="35" height="32" viewBox="0 0 35 32" fill="none" xmlns="http://www.w3.org/2000/svg">
<g id="Frame">
<path d="M0.5 0H34.5V32H0.5V0Z" stroke="#E5E7EB"/>
<path id="Vector" d="M8.975 1C10.0027 1 10.9883 1.49386 11.715 2.37294C12.4417 3.25201 12.85 4.4443 12.85 5.6875C12.85 6.9307 12.4417 8.12299 11.715 9.00206C10.9883 9.88114 10.0027 10.375 8.975 10.375C7.94729 10.375 6.96166 9.88114 6.23496 9.00206C5.50826 8.12299 5.1 6.9307 5.1 5.6875C5.1 4.4443 5.50826 3.25201 6.23496 2.37294C6.96166 1.49386 7.94729 1 8.975 1ZM26.8 1C27.8277 1 28.8133 1.49386 29.54 2.37294C30.2667 3.25201 30.675 4.4443 30.675 5.6875C30.675 6.9307 30.2667 8.12299 29.54 9.00206C28.8133 9.88114 27.8277 10.375 26.8 10.375C25.7723 10.375 24.7867 9.88114 24.06 9.00206C23.3333 8.12299 22.925 6.9307 22.925 5.6875C22.925 4.4443 23.3333 3.25201 24.06 2.37294C24.7867 1.49386 25.7723 1 26.8 1ZM2 18.502C2 15.0508 4.31531 12.25 7.16828 12.25H9.23656C10.0067 12.25 10.7381 12.4551 11.3969 12.8184C11.3339 13.2402 11.3048 13.6797 11.3048 14.125C11.3048 16.3633 12.1186 18.373 13.4022 19.75C13.3925 19.75 13.3828 19.75 13.3683 19.75H3.03172C2.465 19.75 2 19.1875 2 18.502ZM21.6317 19.75C21.622 19.75 21.6123 19.75 21.5978 19.75C22.8862 18.373 23.6952 16.3633 23.6952 14.125C23.6952 13.6797 23.6612 13.2461 23.6031 12.8184C24.2619 12.4492 24.9933 12.25 25.7634 12.25H27.8317C30.6847 12.25 33 15.0508 33 18.502C33 19.1934 32.535 19.75 31.9683 19.75H21.6317ZM12.85 14.125C12.85 12.6332 13.3399 11.2024 14.212 10.1475C15.084 9.09263 16.2667 8.5 17.5 8.5C18.7333 8.5 19.916 9.09263 20.788 10.1475C21.6601 11.2024 22.15 12.6332 22.15 14.125C22.15 15.6168 21.6601 17.0476 20.788 18.1025C19.916 19.1574 18.7333 19.75 17.5 19.75C16.2667 19.75 15.084 19.1574 14.212 18.1025C13.3399 17.0476 12.85 15.6168 12.85 14.125ZM8.2 29.4355C8.2 25.123 11.0917 21.625 14.6567 21.625H20.3433C23.9083 21.625 26.8 25.123 26.8 29.4355C26.8 30.2969 26.2236 31 25.5067 31H9.49328C8.78125 31 8.2 30.3027 8.2 29.4355Z" fill="#4B5563"/>
</g>
</svg>
