<svg width="19" height="24" viewBox="0 0 19 24" fill="none" xmlns="http://www.w3.org/2000/svg">
<g id="Frame">
<g clip-path="url(#clip0_89_3689)">
<path id="Vector" d="M10.9766 1.5C5.1875 1.5 0.5 6.20156 0.5 12C0.5 17.7984 5.1875 22.5 10.9766 22.5C13.8172 22.5 16.3906 21.3656 18.2797 19.5281C18.5141 19.2984 18.575 18.9422 18.425 18.6516C18.275 18.3609 17.9516 18.1969 17.6281 18.2531C17.1687 18.3328 16.7 18.375 16.2172 18.375C11.675 18.375 7.99063 14.6812 7.99063 10.125C7.99063 7.04062 9.67813 4.35469 12.1766 2.93906C12.4625 2.775 12.6078 2.44688 12.5375 2.12813C12.4672 1.80938 12.1953 1.57031 11.8672 1.54219C11.5719 1.51875 11.2766 1.50469 10.9766 1.50469V1.5Z" fill="#4B5563"/>
</g>
</g>
<defs>
<clipPath id="clip0_89_3689">
<path d="M0.5 0H18.5V24H0.5V0Z" fill="white"/>
</clipPath>
</defs>
</svg>
