<svg width="35" height="32" viewBox="0 0 35 32" fill="none" xmlns="http://www.w3.org/2000/svg">
<g id="Frame">
<path d="M0.5 0H34.5V32H0.5V0Z" stroke="#E5E7EB"/>
<path id="Vector" d="M32.3877 10.4145C32.5933 10.9584 32.4198 11.5648 31.9766 11.9523L29.1951 14.4153C29.2657 14.9342 29.3043 15.4655 29.3043 16.0031C29.3043 16.5407 29.2657 17.0721 29.1951 17.5909L31.9766 20.0539C32.4198 20.4415 32.5933 21.0479 32.3877 21.5917C32.1051 22.3356 31.7646 23.0483 31.3728 23.7359L31.0708 24.2422C30.6469 24.9299 30.1715 25.58 29.6512 26.1926C29.2722 26.6427 28.6426 26.7927 28.0773 26.6177L24.4992 25.5112C23.6384 26.1551 22.6877 26.6927 21.6727 27.099L20.8697 30.6685C20.7413 31.2374 20.2916 31.6874 19.7006 31.7812C18.8141 31.925 17.9019 32 16.9705 32C16.039 32 15.1268 31.925 14.2403 31.7812C13.6493 31.6874 13.1996 31.2374 13.0712 30.6685L12.2682 27.099C11.2532 26.6927 10.3025 26.1551 9.44168 25.5112L5.87001 26.624C5.30471 26.799 4.67517 26.6427 4.29617 26.1989C3.77583 25.5862 3.30047 24.9361 2.87649 24.2485L2.57457 23.7421C2.18271 23.0545 1.84225 22.3419 1.5596 21.598C1.35404 21.0541 1.52748 20.4477 1.97073 20.0602L4.75226 17.5972C4.6816 17.0721 4.64305 16.5407 4.64305 16.0031C4.64305 15.4655 4.6816 14.9342 4.75226 14.4153L1.97073 11.9523C1.52748 11.5648 1.35404 10.9584 1.5596 10.4145C1.84225 9.67064 2.18271 8.958 2.57457 8.27037L2.87649 7.76402C3.30047 7.07638 3.77583 6.42626 4.29617 5.81364C4.67517 5.36355 5.30471 5.21352 5.87001 5.38855L9.44811 6.49502C10.3089 5.85114 11.2596 5.31354 12.2746 4.90721L13.0776 1.33776C13.2061 0.7689 13.6557 0.318812 14.2467 0.225044C15.1332 0.0750146 16.0454 0 16.9769 0C17.9083 0 18.8205 0.0750147 19.707 0.218793C20.298 0.312561 20.7477 0.762649 20.8762 1.33151L21.6791 4.90096C22.6941 5.30729 23.6448 5.84489 24.5056 6.48877L28.0837 5.3823C28.649 5.20727 29.2786 5.36355 29.6576 5.80738C30.1779 6.42 30.6533 7.07013 31.0773 7.75777L31.3792 8.26411C31.771 8.95175 32.1115 9.66439 32.3942 10.4083L32.3877 10.4145ZM16.9769 21.0041C18.3398 21.0041 19.647 20.4772 20.6108 19.5394C21.5745 18.6015 22.116 17.3295 22.116 16.0031C22.116 14.6768 21.5745 13.4048 20.6108 12.4669C19.647 11.529 18.3398 11.0021 16.9769 11.0021C15.6139 11.0021 14.3068 11.529 13.343 12.4669C12.3792 13.4048 11.8378 14.6768 11.8378 16.0031C11.8378 17.3295 12.3792 18.6015 13.343 19.5394C14.3068 20.4772 15.6139 21.0041 16.9769 21.0041Z" fill="#4B5563"/>
</g>
</svg>
